<?xml version="1.0" encoding="utf-8"?>                 <svg xmlns="http://www.w3.org/2000/svg" xmlns:xlink="http://www.w3.org/1999/xlink" width="1000" height="1000" fill = "black"><rect x ="0" y ="0" width ="1000" height="1000"/><circle cx="687.898428738" cy="725.065097161" r="5.558" style="stroke: blue; fill: white;"/><circle cx="631.690365195" cy="505.011715931" r="3.773" style="stroke: blue; fill: white;"/><circle cx="634.037057512" cy="555.26198052" r="3.836" style="stroke: blue; fill: white;"/><circle cx="613.499106829" cy="531.610087023" r="3.374" style="stroke: blue; fill: white;"/><circle cx="531.561438132" cy="634.610264019" r="3.948" style="stroke: blue; fill: white;"/><circle cx="534.69587313" cy="733.463991102" r="3.941" style="stroke: blue; fill: white;"/><circle cx="535.580917533" cy="708.775063762" r="4.711" style="stroke: blue; fill: white;"/><circle cx="491.823080867" cy="856.25292434" r="4.158" style="stroke: blue; fill: white;"/><circle cx="472.151513594" cy="434.696366641" r="3.829" style="stroke: blue; fill: white;"/><circle cx="431.878182081" cy="508.496443647" r="4.291" style="stroke: blue; fill: white;"/><circle cx="423.545863385" cy="879.033966939" r="3.906" style="stroke: blue; fill: white;"/><circle cx="391.170022648" cy="282.062646047" r="4.025" style="stroke: blue; fill: white;"/><circle cx="368.107629362" cy="580.385046269" r="5.558" style="stroke: blue; fill: white;"/><circle cx="335.385480739" cy="326.924099776" r="3.584" style="stroke: blue; fill: white;"/><circle cx="316.584879462" cy="325.024876054" r="3.619" style="stroke: blue; fill: white;"/><circle cx="248.238887693" cy="416.611684579" r="4.137" style="stroke: blue; fill: white;"/><circle cx="261.981409046" cy="343.059843252" r="3.514" style="stroke: blue; fill: white;"/><circle cx="226.903344911" cy="438.481622358" r="3.542" style="stroke: blue; fill: white;"/><circle cx="144.883518072" cy="372.037918714" r="5.418" style="stroke: blue; fill: white;"/><circle cx="144.83867012" cy="371.999635995" r="3.612" style="stroke: blue; fill: white;"/><circle cx="957.985737295" cy="345.663326679" r="4.466" style="stroke: blue; fill: white;"/><circle cx="783.887064007" cy="284.892796319" r="4.326" style="stroke: blue; fill: white;"/><circle cx="800.795432057" cy="357.892052543" r="3.997" style="stroke: blue; fill: white;"/><circle cx="777.418404453" cy="336.789035557" r="4.102" style="stroke: blue; fill: white;"/><circle cx="752.69409558" cy="290.434142558" r="3.535" style="stroke: blue; fill: white;"/></svg>