<?xml version="1.0" encoding="utf-8"?>                 <svg xmlns="http://www.w3.org/2000/svg" xmlns:xlink="http://www.w3.org/1999/xlink" width="1000" height="1000" fill = "black"><rect x ="0" y ="0" width ="1000" height="1000"/><circle cx="763.1807037299933" cy="283.74266654367835" r="4.186" style="stroke: blue; fill: white;"/><circle cx="727.2080235213939" cy="316.76346090722654" r="4.906999999999999" style="stroke: blue; fill: white;"/><circle cx="727.6018125196001" cy="820.0931800473037" r="4.592" style="stroke: blue; fill: white;"/><circle cx="647.8715004487758" cy="378.94800125561744" r="3.304" style="stroke: blue; fill: white;"/><circle cx="634.2962047924638" cy="380.72840575805634" r="2.786" style="stroke: blue; fill: white;"/><circle cx="599.1330772242195" cy="608.1869940880918" r="4.648" style="stroke: blue; fill: white;"/><circle cx="592.4072198708002" cy="682.8434987613996" r="3.7379999999999995" style="stroke: blue; fill: white;"/><circle cx="541.0141082241084" cy="493.4859608776047" r="3.885" style="stroke: blue; fill: white;"/><circle cx="522.2831863874007" cy="878.5721270104666" r="3.5349999999999997" style="stroke: blue; fill: white;"/><circle cx="523.5931367185278" cy="726.6457983925447" r="3.9479999999999995" style="stroke: blue; fill: white;"/><circle cx="506.8876336737055" cy="547.0282564832066" r="3.381" style="stroke: blue; fill: white;"/><circle cx="484.487889578493" cy="373.61027181255645" r="3.311" style="stroke: blue; fill: white;"/><circle cx="471.4310875005657" cy="333.91599737416243" r="2.618" style="stroke: blue; fill: white;"/><circle cx="463.56752336970953" cy="487.17122997449906" r="2.8629999999999995" style="stroke: blue; fill: white;"/><circle cx="459.92650841595844" cy="406.2267789523876" r="5.095999999999999" style="stroke: blue; fill: white;"/><circle cx="443.97108644825664" cy="373.7827324035812" r="2.996" style="stroke: blue; fill: white;"/><circle cx="429.57299082967074" cy="453.14940280553606" r="6.461" style="stroke: blue; fill: white;"/><circle cx="428.2818939469295" cy="411.41227103177545" r="3.4229999999999996" style="stroke: blue; fill: white;"/><circle cx="417.341680053916" cy="665.0216034985506" r="4.27" style="stroke: blue; fill: white;"/><circle cx="406.3989537449473" cy="463.9772005653261" r="3.703" style="stroke: blue; fill: white;"/><circle cx="398.83135238998454" cy="519.3860175131272" r="4.403" style="stroke: blue; fill: white;"/><circle cx="394.10726744177396" cy="384.0002660995104" r="3.304" style="stroke: blue; fill: white;"/><circle cx="340.1519193535993" cy="495.23848354626944" r="3.136" style="stroke: blue; fill: white;"/><circle cx="290.8559358025219" cy="712.477172285624" r="4.738999999999999" style="stroke: blue; fill: white;"/><circle cx="278.9898413707123" cy="281.14929934073007" r="3.5349999999999997" style="stroke: blue; fill: white;"/></svg>