<?xml version="1.0" encoding="utf-8"?>                 <svg xmlns="http://www.w3.org/2000/svg" xmlns:xlink="http://www.w3.org/1999/xlink" width="1000" height="1000" fill = "black"><rect x ="0" y ="0" width ="1000" height="1000"/><circle cx="1157.8451015068963" cy="560.8348956811595" r="4.361" style="stroke: blue; fill: white;"/><circle cx="1128.485094287521" cy="544.9959922193647" r="3.6889999999999996" style="stroke: blue; fill: white;"/><circle cx="1019.2409058301382" cy="603.7941582057781" r="3.843" style="stroke: blue; fill: white;"/><circle cx="885.3269569661609" cy="440.37522702149425" r="4.962999999999999" style="stroke: blue; fill: white;"/><circle cx="843.0296436637877" cy="500.97730344269337" r="3.7169999999999996" style="stroke: blue; fill: white;"/><circle cx="675.0857400972932" cy="342.424531335992" r="3.7169999999999996" style="stroke: blue; fill: white;"/><circle cx="658.5397838854589" cy="292.65953213847945" r="4.928" style="stroke: blue; fill: white;"/><circle cx="649.6336087282465" cy="659.770806589509" r="4.011" style="stroke: blue; fill: white;"/><circle cx="582.9577614613769" cy="493.975625400549" r="4.088" style="stroke: blue; fill: white;"/><circle cx="560.3334960672448" cy="494.85519094562596" r="3.2409999999999997" style="stroke: blue; fill: white;"/><circle cx="550.9869326078663" cy="320.42084945735814" r="4.311999999999999" style="stroke: blue; fill: white;"/><circle cx="526.4162095520638" cy="245.9674186139868" r="3.7379999999999995" style="stroke: blue; fill: white;"/><circle cx="502.3033166616859" cy="283.4720756252169" r="3.787" style="stroke: blue; fill: white;"/><circle cx="502.25803882390517" cy="283.4645934321593" r="3.9059999999999997" style="stroke: blue; fill: white;"/><circle cx="490.12780298625324" cy="572.2828143968986" r="3.6259999999999994" style="stroke: blue; fill: white;"/><circle cx="464.8982019488347" cy="842.0404685448602" r="3.36" style="stroke: blue; fill: white;"/><circle cx="457.9701383790474" cy="286.1668290573033" r="4.186" style="stroke: blue; fill: white;"/><circle cx="441.8372762998476" cy="397.30591916651053" r="3.4789999999999996" style="stroke: blue; fill: white;"/><circle cx="377.94720316623676" cy="664.4680140937888" r="3.038" style="stroke: blue; fill: white;"/><circle cx="365.3488683912336" cy="652.0786094526225" r="4.193" style="stroke: blue; fill: white;"/><circle cx="342.41850174604394" cy="489.25804719927805" r="4.382" style="stroke: blue; fill: white;"/><circle cx="333.8296538548997" cy="712.6515325581312" r="4.711" style="stroke: blue; fill: white;"/><circle cx="196.99257696006845" cy="450.7320064159407" r="4.046" style="stroke: blue; fill: white;"/><circle cx="188.81358092147667" cy="533.5392209476222" r="4.053" style="stroke: blue; fill: white;"/><circle cx="181.41671850924706" cy="496.7632431615718" r="3.458" style="stroke: blue; fill: white;"/><circle cx="175.7002606017445" cy="536.4997482492031" r="3.927" style="stroke: blue; fill: white;"/><circle cx="169.1773600090507" cy="548.3376171804985" r="3.5139999999999993" style="stroke: blue; fill: white;"/><circle cx="42.40877046983178" cy="678.1535273223402" r="3.5" style="stroke: blue; fill: white;"/><circle cx="24.712071368550653" cy="687.7018568556259" r="3.8569999999999998" style="stroke: blue; fill: white;"/></svg>