<?xml version="1.0" encoding="utf-8"?>                 <svg xmlns="http://www.w3.org/2000/svg" xmlns:xlink="http://www.w3.org/1999/xlink" width="1000" height="1000" fill = "black"><rect x ="0" y ="0" width ="1000" height="1000"/><circle cx="953.92830653799" cy="498.860679072822" r="3.6189999999999998" style="stroke: blue; fill: white;"/><circle cx="953.9344701710114" cy="498.96316692259546" r="3.675" style="stroke: blue; fill: white;"/><circle cx="937.7846952956738" cy="429.8460685714041" r="5.151999999999999" style="stroke: blue; fill: white;"/><circle cx="916.4871411015777" cy="569.4757821387689" r="3.43" style="stroke: blue; fill: white;"/><circle cx="894.8714111097194" cy="303.40942434091437" r="3.647" style="stroke: blue; fill: white;"/><circle cx="806.5659878195665" cy="351.4861424034997" r="3.4789999999999996" style="stroke: blue; fill: white;"/><circle cx="798.3212765380592" cy="314.2443356259497" r="5.6" style="stroke: blue; fill: white;"/><circle cx="742.9416479821323" cy="420.3015598350615" r="3.311" style="stroke: blue; fill: white;"/><circle cx="687.4338732344936" cy="482.45535520386517" r="3.066" style="stroke: blue; fill: white;"/><circle cx="620.0968297876259" cy="911.4789906089811" r="3.171" style="stroke: blue; fill: white;"/><circle cx="463.37811968057827" cy="389.56755606291733" r="3.199" style="stroke: blue; fill: white;"/><circle cx="424.3759576244654" cy="479.3293741083217" r="3.0169999999999995" style="stroke: blue; fill: white;"/><circle cx="398.08206066167213" cy="696.0156366927462" r="2.9610000000000003" style="stroke: blue; fill: white;"/><circle cx="347.0029763739233" cy="595.8460390736143" r="3.346" style="stroke: blue; fill: white;"/><circle cx="320.63099901479427" cy="705.169868384401" r="3.1569999999999996" style="stroke: blue; fill: white;"/><circle cx="276.4958654213668" cy="553.9983703097065" r="2.8629999999999995" style="stroke: blue; fill: white;"/><circle cx="269.2447396342144" cy="568.0394185224729" r="3.0589999999999997" style="stroke: blue; fill: white;"/><circle cx="244.24391631662738" cy="413.8833110061038" r="3.759" style="stroke: blue; fill: white;"/><circle cx="244.24391631662738" cy="413.8833110061038" r="3.759" style="stroke: blue; fill: white;"/><circle cx="107.67552906135245" cy="482.47223291426246" r="3.955" style="stroke: blue; fill: white;"/><circle cx="76.22386923310478" cy="419.7366882935425" r="3.577" style="stroke: blue; fill: white;"/><circle cx="9.553944315412593" cy="410.7857105974757" r="3.304" style="stroke: blue; fill: white;"/><circle cx="-7.92707910558795" cy="428.33330410026457" r="3.437" style="stroke: blue; fill: white;"/></svg>