<?xml version="1.0" encoding="utf-8"?>                 <svg xmlns="http://www.w3.org/2000/svg" xmlns:xlink="http://www.w3.org/1999/xlink" width="1000" height="1000" fill = "black"><rect x ="0" y ="0" width ="1000" height="1000"/><circle cx="769.949317300423" cy="674.4515193364952" r="5.117" style="stroke: blue; fill: white;"/><circle cx="744.5810058805603" cy="569.9070206182013" r="3.5419999999999994" style="stroke: blue; fill: white;"/><circle cx="712.7012998651594" cy="437.55720128513207" r="4.906999999999999" style="stroke: blue; fill: white;"/><circle cx="720.0975292831151" cy="500.04976767845125" r="4.375" style="stroke: blue; fill: white;"/><circle cx="702.5945417849646" cy="498.93699668405736" r="4.781" style="stroke: blue; fill: white;"/><circle cx="680.4778963514027" cy="565.211934064167" r="3.5979999999999994" style="stroke: blue; fill: white;"/><circle cx="647.3850176974513" cy="395.98908699526703" r="6.944" style="stroke: blue; fill: white;"/><circle cx="651.6880691950876" cy="531.2512986143097" r="3.703" style="stroke: blue; fill: white;"/><circle cx="636.5712674589402" cy="493.5162470397608" r="3.3389999999999995" style="stroke: blue; fill: white;"/><circle cx="632.7457330151428" cy="595.3088111262482" r="3.5069999999999997" style="stroke: blue; fill: white;"/><circle cx="623.6970453914548" cy="662.4910974130041" r="3.4509999999999996" style="stroke: blue; fill: white;"/><circle cx="602.5114743183688" cy="715.7726130243511" r="3.6679999999999997" style="stroke: blue; fill: white;"/><circle cx="529.6182983168113" cy="316.51339708151346" r="3.171" style="stroke: blue; fill: white;"/><circle cx="521.065633198853" cy="559.7946309173692" r="3.836" style="stroke: blue; fill: white;"/><circle cx="513.1273283342525" cy="602.7375134715049" r="3.6819999999999995" style="stroke: blue; fill: white;"/><circle cx="510.8016784559421" cy="560.6451100605576" r="4.220999999999999" style="stroke: blue; fill: white;"/><circle cx="497.02381612018576" cy="184.74783996188637" r="3.5069999999999997" style="stroke: blue; fill: white;"/><circle cx="481.28243626817067" cy="216.29777478563454" r="4.395999999999999" style="stroke: blue; fill: white;"/><circle cx="477.2998672162075" cy="427.8022734067609" r="5.669999999999999" style="stroke: blue; fill: white;"/><circle cx="476.0764173351046" cy="405.17282897314857" r="4.018" style="stroke: blue; fill: white;"/><circle cx="473.57582292546317" cy="604.6933963883384" r="5.1659999999999995" style="stroke: blue; fill: white;"/><circle cx="393.2828650246788" cy="776.1442795692969" r="3.955" style="stroke: blue; fill: white;"/><circle cx="384.72261699581003" cy="323.8700217792142" r="3.5629999999999997" style="stroke: blue; fill: white;"/><circle cx="304.1404080425398" cy="530.6103002578338" r="3.36" style="stroke: blue; fill: white;"/><circle cx="309.6128941261113" cy="471.62381715124474" r="3.647" style="stroke: blue; fill: white;"/><circle cx="300.9438221602684" cy="423.3750659065464" r="3.486" style="stroke: blue; fill: white;"/><circle cx="282.954859560871" cy="442.57760179607845" r="3.3249999999999997" style="stroke: blue; fill: white;"/><circle cx="299.23137847499436" cy="324.63342645042883" r="3.346" style="stroke: blue; fill: white;"/><circle cx="259.89303800416087" cy="480.48415601038744" r="3.486" style="stroke: blue; fill: white;"/><circle cx="234.22042042768317" cy="552.0648032137397" r="2.4639999999999995" style="stroke: blue; fill: white;"/><circle cx="255.36924135702506" cy="375.2701518597751" r="2.8909999999999996" style="stroke: blue; fill: white;"/></svg>