<?xml version="1.0" encoding="utf-8"?>                 <svg xmlns="http://www.w3.org/2000/svg" xmlns:xlink="http://www.w3.org/1999/xlink" width="1000" height="1000" fill = "black"><rect x ="0" y ="0" width ="1000" height="1000"/><circle cx="709.4326791681766" cy="695.0033655195643" r="3.8499999999999996" style="stroke: blue; fill: white;"/><circle cx="703.107937841369" cy="721.2259716658809" r="4.151" style="stroke: blue; fill: white;"/><circle cx="681.3364920956928" cy="683.8671979589915" r="5.124" style="stroke: blue; fill: white;"/><circle cx="573.2033506544326" cy="174.68634724718942" r="2.3169999999999997" style="stroke: blue; fill: white;"/><circle cx="573.1470175091949" cy="174.6532888481106" r="3.8219999999999996" style="stroke: blue; fill: white;"/><circle cx="603.6610099964462" cy="678.4989423272214" r="7.027999999999999" style="stroke: blue; fill: white;"/><circle cx="567.2955149944729" cy="181.2787738633188" r="3.675" style="stroke: blue; fill: white;"/><circle cx="574.1653060476442" cy="260.1111681642209" r="4.074" style="stroke: blue; fill: white;"/><circle cx="544.7423060568373" cy="175.30896827584763" r="4.165" style="stroke: blue; fill: white;"/><circle cx="540.0237171413282" cy="506.3687776343622" r="4.494" style="stroke: blue; fill: white;"/><circle cx="535.6358518804855" cy="381.85574769689345" r="4.8790000000000004" style="stroke: blue; fill: white;"/><circle cx="530.5514335879416" cy="516.4486702445536" r="3.8779999999999997" style="stroke: blue; fill: white;"/><circle cx="510.9395582251318" cy="724.090425463887" r="3.5419999999999994" style="stroke: blue; fill: white;"/><circle cx="510.9207197236329" cy="724.0990168618944" r="2.884" style="stroke: blue; fill: white;"/><circle cx="509.4671729145597" cy="764.846333505783" r="3.6189999999999998" style="stroke: blue; fill: white;"/><circle cx="509.4671729145597" cy="764.846333505783" r="3.899" style="stroke: blue; fill: white;"/><circle cx="493.91660959031236" cy="715.7794203432306" r="3.78" style="stroke: blue; fill: white;"/><circle cx="495.2302237064782" cy="558.7286121086278" r="3.416" style="stroke: blue; fill: white;"/><circle cx="495.2301882449142" cy="558.7416998115434" r="5.109999999999999" style="stroke: blue; fill: white;"/><circle cx="471.1418791455189" cy="682.7461902963153" r="3.815" style="stroke: blue; fill: white;"/><circle cx="434.16432211808313" cy="589.7921627126311" r="3.633" style="stroke: blue; fill: white;"/><circle cx="445.1521526555539" cy="348.78574284424246" r="4.55" style="stroke: blue; fill: white;"/><circle cx="427.0757636262895" cy="559.0404441513967" r="3.8219999999999996" style="stroke: blue; fill: white;"/><circle cx="394.2841751983832" cy="522.2419339358438" r="3.318" style="stroke: blue; fill: white;"/><circle cx="395.5197921986046" cy="456.8569757744854" r="4.570999999999999" style="stroke: blue; fill: white;"/><circle cx="372.9032344375584" cy="391.04067991964" r="3.983" style="stroke: blue; fill: white;"/><circle cx="372.77639686823096" cy="391.4916810625947" r="2.4499999999999997" style="stroke: blue; fill: white;"/><circle cx="360.1690195258724" cy="335.6288173362407" r="3.486" style="stroke: blue; fill: white;"/><circle cx="357.82610153262976" cy="334.3386600525246" r="3.486" style="stroke: blue; fill: white;"/><circle cx="338.9883627290652" cy="340.68943529038927" r="3.332" style="stroke: blue; fill: white;"/></svg>