<?xml version="1.0" encoding="utf-8"?>                 <svg xmlns="http://www.w3.org/2000/svg" xmlns:xlink="http://www.w3.org/1999/xlink" width="1000" height="1000" fill = "black"><rect x ="0" y ="0" width ="1000" height="1000"/><circle cx="902.8268631586257" cy="318.94346572265067" r="2.562" style="stroke: blue; fill: white;"/><circle cx="898.1605267728198" cy="327.3383656229255" r="2.9050000000000002" style="stroke: blue; fill: white;"/><circle cx="849.9580981738961" cy="320.60184621074376" r="4.032" style="stroke: blue; fill: white;"/><circle cx="846.1304956505214" cy="321.81484572390076" r="4.5009999999999994" style="stroke: blue; fill: white;"/><circle cx="822.9942942829363" cy="574.3413071758382" r="3.304" style="stroke: blue; fill: white;"/><circle cx="821.601499556198" cy="328.9173184247478" r="3.6679999999999997" style="stroke: blue; fill: white;"/><circle cx="815.6191747262942" cy="406.5629891647469" r="4.843999999999999" style="stroke: blue; fill: white;"/><circle cx="752.8026298073717" cy="536.4189245015153" r="3.3249999999999997" style="stroke: blue; fill: white;"/><circle cx="739.3315640650962" cy="520.5797944915308" r="3.6539999999999995" style="stroke: blue; fill: white;"/><circle cx="729.0517612625649" cy="550.0713994636657" r="2.2819999999999996" style="stroke: blue; fill: white;"/><circle cx="728.8442202620209" cy="549.9359461836957" r="2.8419999999999996" style="stroke: blue; fill: white;"/><circle cx="646.2543271766652" cy="407.7392402016547" r="3.346" style="stroke: blue; fill: white;"/><circle cx="636.7566501875845" cy="530.3683360976014" r="3.43" style="stroke: blue; fill: white;"/><circle cx="577.4885425284704" cy="803.6665622491935" r="4.102" style="stroke: blue; fill: white;"/><circle cx="527.1775292327038" cy="866.1258823356682" r="4.122999999999999" style="stroke: blue; fill: white;"/><circle cx="414.5506741863189" cy="595.7459920655228" r="3.6119999999999997" style="stroke: blue; fill: white;"/><circle cx="399.0417803389313" cy="494.81496227451447" r="4.151" style="stroke: blue; fill: white;"/><circle cx="377.98086429625914" cy="647.8622704453246" r="3.29" style="stroke: blue; fill: white;"/><circle cx="313.90082157883415" cy="628.4220892445823" r="3.332" style="stroke: blue; fill: white;"/><circle cx="248.91685446789066" cy="483.19495015679337" r="4.004" style="stroke: blue; fill: white;"/><circle cx="218.40657955928646" cy="699.4452454025721" r="4.382" style="stroke: blue; fill: white;"/><circle cx="119.35563932861402" cy="590.7063324126856" r="3.7239999999999998" style="stroke: blue; fill: white;"/><circle cx="85.9066018760368" cy="484.30017994043385" r="4.4239999999999995" style="stroke: blue; fill: white;"/><circle cx="68.03437060411079" cy="570.5805692020299" r="3.6889999999999996" style="stroke: blue; fill: white;"/><circle cx="16.663522991201546" cy="284.50379288960323" r="3.094" style="stroke: blue; fill: white;"/><circle cx="21.83656226350331" cy="467.745300003135" r="4.991" style="stroke: blue; fill: white;"/><circle cx="-40.86002322945387" cy="372.8699114055017" r="3.444" style="stroke: blue; fill: white;"/></svg>