<?xml version="1.0" encoding="utf-8"?>                 <svg xmlns="http://www.w3.org/2000/svg" xmlns:xlink="http://www.w3.org/1999/xlink" width="1000" height="1000" fill = "black"><rect x ="0" y ="0" width ="1000" height="1000"/><circle cx="669.064376055" cy="439.637173814" r="5.411" style="stroke: blue; fill: white;"/><circle cx="607.669305614" cy="592.049882776" r="3.689" style="stroke: blue; fill: white;"/><circle cx="575.213606181" cy="365.447612696" r="4.088" style="stroke: blue; fill: white;"/><circle cx="575.155490123" cy="622.991283976" r="4.438" style="stroke: blue; fill: white;"/><circle cx="555.759906599" cy="538.682771384" r="5.439" style="stroke: blue; fill: white;"/><circle cx="566.115885098" cy="708.920115722" r="3.64" style="stroke: blue; fill: white;"/><circle cx="568.196454157" cy="793.692706805" r="3.542" style="stroke: blue; fill: white;"/><circle cx="546.606820704" cy="766.671091463" r="3.822" style="stroke: blue; fill: white;"/><circle cx="524.807751479" cy="510.922883899" r="4.592" style="stroke: blue; fill: white;"/><circle cx="525.917261647" cy="710.710611859" r="3.577" style="stroke: blue; fill: white;"/><circle cx="509.384258687" cy="482.884990319" r="3.619" style="stroke: blue; fill: white;"/><circle cx="492.050932358" cy="425.966234368" r="5.271" style="stroke: blue; fill: white;"/><circle cx="491.980720031" cy="454.099033321" r="3.759" style="stroke: blue; fill: white;"/><circle cx="442.152052485" cy="595.731749753" r="3.381" style="stroke: blue; fill: white;"/><circle cx="444.26338759" cy="566.910867162" r="3.969" style="stroke: blue; fill: white;"/><circle cx="403.367912146" cy="478.12210599" r="3.514" style="stroke: blue; fill: white;"/><circle cx="418.826227956" cy="194.255067955" r="3.682" style="stroke: blue; fill: white;"/><circle cx="392.011449437" cy="419.913170068" r="5.124" style="stroke: blue; fill: white;"/><circle cx="359.310154717" cy="444.14074271" r="3.703" style="stroke: blue; fill: white;"/><circle cx="314.260490173" cy="320.561386207" r="4.634" style="stroke: blue; fill: white;"/><circle cx="337.416609706" cy="180.629390108" r="3.507" style="stroke: blue; fill: white;"/><circle cx="246.099281856" cy="182.938128779" r="3.836" style="stroke: blue; fill: white;"/><circle cx="762.307959412" cy="448.822069834" r="3.591" style="stroke: blue; fill: white;"/><circle cx="738.472643169" cy="483.817821181" r="3.822" style="stroke: blue; fill: white;"/><circle cx="736.885372401" cy="543.03199345" r="3.584" style="stroke: blue; fill: white;"/></svg>