<?xml version="1.0" encoding="utf-8"?>                 <svg xmlns="http://www.w3.org/2000/svg" xmlns:xlink="http://www.w3.org/1999/xlink" width="1000" height="1000" fill = "black"><rect x ="0" y ="0" width ="1000" height="1000"/><circle cx="874.1786278119828" cy="699.3158313472154" r="4.276999999999999" style="stroke: blue; fill: white;"/><circle cx="800.4914662346553" cy="789.1252886007194" r="3.409" style="stroke: blue; fill: white;"/><circle cx="799.7231133336709" cy="790.5907324829974" r="3.3949999999999996" style="stroke: blue; fill: white;"/><circle cx="759.0013602058334" cy="858.4235998501424" r="4.809" style="stroke: blue; fill: white;"/><circle cx="754.0190952831442" cy="569.6737786207033" r="5.18" style="stroke: blue; fill: white;"/><circle cx="734.2103097588022" cy="603.012326864802" r="4.228" style="stroke: blue; fill: white;"/><circle cx="688.4629419554452" cy="544.4905983472293" r="4.263" style="stroke: blue; fill: white;"/><circle cx="659.8346816184435" cy="501.38580451995955" r="4.298" style="stroke: blue; fill: white;"/><circle cx="644.6434748413297" cy="508.8129515498789" r="5.481" style="stroke: blue; fill: white;"/><circle cx="563.1255134918556" cy="513.9995836107698" r="3.605" style="stroke: blue; fill: white;"/><circle cx="550.4952020940101" cy="521.8901979127614" r="4.011" style="stroke: blue; fill: white;"/><circle cx="501.13471889230317" cy="225.7896260876699" r="5.074999999999999" style="stroke: blue; fill: white;"/><circle cx="436.2817565344663" cy="602.784614179882" r="5.39" style="stroke: blue; fill: white;"/><circle cx="379.86003607835323" cy="341.8207528206856" r="4.6129999999999995" style="stroke: blue; fill: white;"/><circle cx="380.87933441414395" cy="359.36484679363207" r="4.872" style="stroke: blue; fill: white;"/><circle cx="368.0546678121429" cy="469.34985720026356" r="5.215" style="stroke: blue; fill: white;"/><circle cx="344.40503850380094" cy="354.9811945200601" r="4.319" style="stroke: blue; fill: white;"/><circle cx="349.59906159446587" cy="415.3243151761932" r="4.2909999999999995" style="stroke: blue; fill: white;"/><circle cx="339.8914253173971" cy="434.7103909668267" r="3.9619999999999997" style="stroke: blue; fill: white;"/><circle cx="381.12147453398586" cy="763.138084209307" r="6.573" style="stroke: blue; fill: white;"/><circle cx="309.7626579043225" cy="339.0070636418535" r="3.9479999999999995" style="stroke: blue; fill: white;"/><circle cx="293.64988376716656" cy="233.88686093855938" r="5.557999999999999" style="stroke: blue; fill: white;"/><circle cx="237.74673127742858" cy="277.5752563121092" r="4.165" style="stroke: blue; fill: white;"/><circle cx="193.97065216648195" cy="384.5943062087213" r="5.382999999999999" style="stroke: blue; fill: white;"/><circle cx="288.2193816066" cy="792.6242862831695" r="7.007" style="stroke: blue; fill: white;"/><circle cx="288.2126128746726" cy="792.6324902778719" r="6.069" style="stroke: blue; fill: white;"/><circle cx="101.91971329655433" cy="410.8803623644399" r="4.809" style="stroke: blue; fill: white;"/></svg>