<?xml version="1.0" encoding="utf-8"?>                 <svg xmlns="http://www.w3.org/2000/svg" xmlns:xlink="http://www.w3.org/1999/xlink" width="1000" height="1000" fill = "black"><rect x ="0" y ="0" width ="1000" height="1000"/><circle cx="659.6098549941195" cy="157.964225103304" r="3.927" style="stroke: blue; fill: white;"/><circle cx="782.2728499126101" cy="545.2541721231568" r="4.046" style="stroke: blue; fill: white;"/><circle cx="745.8003283514487" cy="591.8641065554906" r="4.599" style="stroke: blue; fill: white;"/><circle cx="637.9743632766852" cy="597.5084059733125" r="5.292" style="stroke: blue; fill: white;"/><circle cx="576.959168865068" cy="384.91411806889454" r="4.738999999999999" style="stroke: blue; fill: white;"/><circle cx="567.2192002372029" cy="711.3602239819393" r="4.144" style="stroke: blue; fill: white;"/><circle cx="556.1947915087142" cy="647.9452855987626" r="3.997" style="stroke: blue; fill: white;"/><circle cx="495.77626218859206" cy="553.4444931255673" r="3.997" style="stroke: blue; fill: white;"/><circle cx="469.17429099401346" cy="729.1626327096312" r="4.655" style="stroke: blue; fill: white;"/><circle cx="467.9346128401321" cy="695.9818507476601" r="3.472" style="stroke: blue; fill: white;"/><circle cx="452.53915203982166" cy="759.9802917983775" r="4.066999999999999" style="stroke: blue; fill: white;"/><circle cx="403.5044600968074" cy="718.6632947675847" r="4.375" style="stroke: blue; fill: white;"/><circle cx="467.44892733928424" cy="164.40413032366388" r="2.9189999999999996" style="stroke: blue; fill: white;"/><circle cx="463.35008450941217" cy="162.93860185510954" r="3.15" style="stroke: blue; fill: white;"/><circle cx="369.42158614429945" cy="497.72738085443336" r="4.536" style="stroke: blue; fill: white;"/><circle cx="387.67554188225444" cy="243.18379544420299" r="3.913" style="stroke: blue; fill: white;"/><circle cx="307.7863705771674" cy="427.8810887064752" r="3.675" style="stroke: blue; fill: white;"/><circle cx="361.17091408298296" cy="169.74698152782514" r="4.753" style="stroke: blue; fill: white;"/></svg>