<?xml version="1.0" encoding="utf-8"?>                 <svg xmlns="http://www.w3.org/2000/svg" xmlns:xlink="http://www.w3.org/1999/xlink" width="1000" height="1000" fill = "black"><rect x ="0" y ="0" width ="1000" height="1000"/><circle cx="975.1359122855825" cy="575.4904928913753" r="4.507999999999999" style="stroke: blue; fill: white;"/><circle cx="855.5313560431431" cy="745.4053850325405" r="5.572" style="stroke: blue; fill: white;"/><circle cx="864.7402452426563" cy="605.3963346602666" r="3.6679999999999997" style="stroke: blue; fill: white;"/><circle cx="838.1594907448538" cy="605.2039151688882" r="3.3669999999999995" style="stroke: blue; fill: white;"/><circle cx="810.9128725711623" cy="616.316236105041" r="3.283" style="stroke: blue; fill: white;"/><circle cx="798.5473642680709" cy="618.1422826510634" r="3.0729999999999995" style="stroke: blue; fill: white;"/><circle cx="754.6300306122696" cy="594.0892790248649" r="4.585" style="stroke: blue; fill: white;"/><circle cx="684.1342085749211" cy="554.3352972402155" r="4.4799999999999995" style="stroke: blue; fill: white;"/><circle cx="586.9505890910085" cy="701.2390955235029" r="4.55" style="stroke: blue; fill: white;"/><circle cx="562.853617723281" cy="601.052743907098" r="3.731" style="stroke: blue; fill: white;"/><circle cx="554.0676606783416" cy="594.2749103189992" r="4.388999999999999" style="stroke: blue; fill: white;"/><circle cx="512.9601372083088" cy="797.190525217783" r="4.199999999999999" style="stroke: blue; fill: white;"/><circle cx="451.99147122927167" cy="228.2245763217033" r="3.941" style="stroke: blue; fill: white;"/><circle cx="421.05966287831353" cy="453.0180523271455" r="4.872" style="stroke: blue; fill: white;"/><circle cx="391.84591720096296" cy="632.0797895165283" r="3.577" style="stroke: blue; fill: white;"/><circle cx="380.0675859236941" cy="235.9651313699532" r="4.004" style="stroke: blue; fill: white;"/><circle cx="364.91724725160543" cy="688.5994374149262" r="3.675" style="stroke: blue; fill: white;"/><circle cx="342.69279703349434" cy="290.2500601001891" r="3.5979999999999994" style="stroke: blue; fill: white;"/><circle cx="324.79055146089945" cy="390.65395694939184" r="4.151" style="stroke: blue; fill: white;"/><circle cx="328.16397784130504" cy="624.8760321030725" r="3.6119999999999997" style="stroke: blue; fill: white;"/><circle cx="307.00032502033093" cy="335.4684526705877" r="4.570999999999999" style="stroke: blue; fill: white;"/><circle cx="308.5360765330821" cy="663.0936435519242" r="4.0249999999999995" style="stroke: blue; fill: white;"/><circle cx="302.04961770153875" cy="206.28961782535833" r="4.011" style="stroke: blue; fill: white;"/><circle cx="232.80109085128447" cy="230.1437473857975" r="3.7099999999999995" style="stroke: blue; fill: white;"/><circle cx="218.3177841626151" cy="321.1104226030508" r="5.229" style="stroke: blue; fill: white;"/><circle cx="139.67825809179777" cy="337.0433869639648" r="3.6189999999999998" style="stroke: blue; fill: white;"/><circle cx="131.86430527821568" cy="331.5045004045833" r="3.0169999999999995" style="stroke: blue; fill: white;"/></svg>