<?xml version="1.0" encoding="utf-8"?>                 <svg xmlns="http://www.w3.org/2000/svg" xmlns:xlink="http://www.w3.org/1999/xlink" width="1000" height="1000" fill = "black"><rect x ="0" y ="0" width ="1000" height="1000"/><circle cx="693.4576762131891" cy="717.6014197008367" r="4.886" style="stroke: blue; fill: white;"/><circle cx="696.199331972231" cy="364.3645873197082" r="5.613999999999999" style="stroke: blue; fill: white;"/><circle cx="640.3522551441338" cy="787.975146447212" r="3.8639999999999994" style="stroke: blue; fill: white;"/><circle cx="628.24254156199" cy="521.1346772151758" r="3.969" style="stroke: blue; fill: white;"/><circle cx="607.2149115616363" cy="507.2548431193611" r="3.8219999999999996" style="stroke: blue; fill: white;"/><circle cx="601.187582449241" cy="381.42505028364155" r="3.01" style="stroke: blue; fill: white;"/><circle cx="598.7398146051598" cy="398.7348709270239" r="4.234999999999999" style="stroke: blue; fill: white;"/><circle cx="590.9834025393062" cy="368.8769401373495" r="3.899" style="stroke: blue; fill: white;"/><circle cx="541.0300530158806" cy="323.8234890345344" r="8.022" style="stroke: blue; fill: white;"/><circle cx="507.2295271547872" cy="783.2179785376138" r="4.228" style="stroke: blue; fill: white;"/><circle cx="477.33038402104074" cy="188.5535994252645" r="4.151" style="stroke: blue; fill: white;"/><circle cx="479.24348493183817" cy="541.471166004393" r="4.2909999999999995" style="stroke: blue; fill: white;"/><circle cx="468.4119539680425" cy="423.345904873521" r="3.7239999999999998" style="stroke: blue; fill: white;"/><circle cx="463.914240602472" cy="246.36825890054104" r="3.5" style="stroke: blue; fill: white;"/><circle cx="464.25198784031585" cy="333.59719140295056" r="3.941" style="stroke: blue; fill: white;"/><circle cx="451.39678498873377" cy="681.2426933267943" r="5.949999999999999" style="stroke: blue; fill: white;"/><circle cx="430.9770000385803" cy="651.3991411361169" r="4.570999999999999" style="stroke: blue; fill: white;"/><circle cx="419.81880305576124" cy="531.9926111447156" r="4.886" style="stroke: blue; fill: white;"/><circle cx="410.43724260646775" cy="293.16628311673685" r="4.116" style="stroke: blue; fill: white;"/><circle cx="386.4495576950393" cy="607.5528941980529" r="5.712" style="stroke: blue; fill: white;"/><circle cx="345.1400112650245" cy="620.0589144949311" r="4.305" style="stroke: blue; fill: white;"/><circle cx="317.1139145768377" cy="568.1851752386469" r="3.9199999999999995" style="stroke: blue; fill: white;"/><circle cx="290.08310251470016" cy="696.4065902205232" r="5.284999999999999" style="stroke: blue; fill: white;"/></svg>