<?xml version="1.0" encoding="utf-8"?>                 <svg xmlns="http://www.w3.org/2000/svg" xmlns:xlink="http://www.w3.org/1999/xlink" width="1000" height="1000" fill = "black"><rect x ="0" y ="0" width ="1000" height="1000"/><circle cx="712.5649663108148" cy="420.0989186995073" r="2.9189999999999996" style="stroke: blue; fill: white;"/><circle cx="708.5838500836601" cy="428.01880632995164" r="2.583" style="stroke: blue; fill: white;"/><circle cx="686.1661787617495" cy="491.4636391588632" r="2.8069999999999995" style="stroke: blue; fill: white;"/><circle cx="679.0780070763913" cy="518.5240188751123" r="3.29" style="stroke: blue; fill: white;"/><circle cx="658.5831100349114" cy="420.1634152785013" r="2.9889999999999994" style="stroke: blue; fill: white;"/><circle cx="656.9195691465876" cy="619.0179327918786" r="3.0589999999999997" style="stroke: blue; fill: white;"/><circle cx="656.9195691465876" cy="619.0179327918786" r="2.786" style="stroke: blue; fill: white;"/><circle cx="656.8597096146308" cy="619.020551938392" r="2.6599999999999997" style="stroke: blue; fill: white;"/><circle cx="635.8454758210626" cy="831.1042905443508" r="4.536" style="stroke: blue; fill: white;"/><circle cx="602.4897767601119" cy="379.13388213298623" r="3.402" style="stroke: blue; fill: white;"/><circle cx="602.5630111876187" cy="459.8582708521703" r="2.8139999999999996" style="stroke: blue; fill: white;"/><circle cx="566.1947995105518" cy="363.0156848977392" r="3.1009999999999995" style="stroke: blue; fill: white;"/><circle cx="564.9800591749695" cy="387.21275322511855" r="2.5759999999999996" style="stroke: blue; fill: white;"/><circle cx="564.9608139419876" cy="387.1921075715537" r="2.59" style="stroke: blue; fill: white;"/><circle cx="539.2721319526028" cy="459.6691778111291" r="2.9749999999999996" style="stroke: blue; fill: white;"/><circle cx="540.3679169210371" cy="610.9546165547357" r="3.255" style="stroke: blue; fill: white;"/><circle cx="533.2005512000034" cy="551.7765528787265" r="3.2689999999999997" style="stroke: blue; fill: white;"/><circle cx="530.6543835921415" cy="459.66505622849303" r="2.5479999999999996" style="stroke: blue; fill: white;"/><circle cx="487.2670623906117" cy="574.5500489895894" r="2.59" style="stroke: blue; fill: white;"/><circle cx="470.74736331597535" cy="525.8346533424557" r="3.7379999999999995" style="stroke: blue; fill: white;"/><circle cx="461.7228367701347" cy="609.4714067912915" r="4.242" style="stroke: blue; fill: white;"/><circle cx="453.7112399048252" cy="341.4177408523185" r="2.401" style="stroke: blue; fill: white;"/><circle cx="453.54273251218063" cy="341.5480795733506" r="4.186" style="stroke: blue; fill: white;"/><circle cx="423.96790334279774" cy="247.99461584957533" r="3.038" style="stroke: blue; fill: white;"/><circle cx="420.55929433396255" cy="351.7189346670816" r="2.8349999999999995" style="stroke: blue; fill: white;"/><circle cx="403.1789337721199" cy="361.4146754297625" r="3.346" style="stroke: blue; fill: white;"/><circle cx="401.22061767597523" cy="236.50814969948414" r="3.1849999999999996" style="stroke: blue; fill: white;"/><circle cx="384.66759937510665" cy="679.088763234594" r="3.36" style="stroke: blue; fill: white;"/><circle cx="382.75805606494555" cy="672.5344571046797" r="3.0309999999999997" style="stroke: blue; fill: white;"/><circle cx="375.3341032115658" cy="765.372783467235" r="4.0249999999999995" style="stroke: blue; fill: white;"/><circle cx="386.85152749528834" cy="248.27745303322257" r="3.36" style="stroke: blue; fill: white;"/><circle cx="359.68784533919177" cy="447.63387503239903" r="3.1849999999999996" style="stroke: blue; fill: white;"/><circle cx="337.33276024575287" cy="315.3781199942913" r="3.199" style="stroke: blue; fill: white;"/><circle cx="317.62339813669416" cy="792.4978360969512" r="3.332" style="stroke: blue; fill: white;"/><circle cx="318.62198847216496" cy="506.65895392236365" r="3.402" style="stroke: blue; fill: white;"/><circle cx="293.23454283130405" cy="683.2310750189562" r="2.443" style="stroke: blue; fill: white;"/><circle cx="275.45664646753175" cy="683.5441850301845" r="3.262" style="stroke: blue; fill: white;"/></svg>