<?xml version="1.0" encoding="utf-8"?>                 <svg xmlns="http://www.w3.org/2000/svg" xmlns:xlink="http://www.w3.org/1999/xlink" width="1000" height="1000" fill = "black"><rect x ="0" y ="0" width ="1000" height="1000"/><circle cx="817.253078812491" cy="602.5726946850823" r="3.143" style="stroke: blue; fill: white;"/><circle cx="784.7215714991871" cy="573.6620473840493" r="3.094" style="stroke: blue; fill: white;"/><circle cx="784.7215714991871" cy="573.6620473840493" r="2.7439999999999998" style="stroke: blue; fill: white;"/><circle cx="741.5780453951497" cy="631.136880043088" r="4.4239999999999995" style="stroke: blue; fill: white;"/><circle cx="685.8301771302783" cy="529.3751513704252" r="4.102" style="stroke: blue; fill: white;"/><circle cx="676.2412071282357" cy="744.9063902807327" r="5.438999999999999" style="stroke: blue; fill: white;"/><circle cx="648.2658330008946" cy="176.66951316084203" r="3.4229999999999996" style="stroke: blue; fill: white;"/><circle cx="614.8701257267107" cy="287.32833001841243" r="2.8" style="stroke: blue; fill: white;"/><circle cx="614.7939748098071" cy="287.36904263326767" r="3.4509999999999996" style="stroke: blue; fill: white;"/><circle cx="593.3242327650039" cy="766.7572520714409" r="4.311999999999999" style="stroke: blue; fill: white;"/><circle cx="575.6182219580651" cy="479.12248586665044" r="3.108" style="stroke: blue; fill: white;"/><circle cx="522.194714143448" cy="778.1526450634387" r="3.759" style="stroke: blue; fill: white;"/><circle cx="504.6629392065668" cy="334.2518752592116" r="3.6259999999999994" style="stroke: blue; fill: white;"/><circle cx="462.83380975799514" cy="228.30379024717394" r="3.1849999999999996" style="stroke: blue; fill: white;"/><circle cx="439.40787157333784" cy="740.4484230235159" r="4.095" style="stroke: blue; fill: white;"/><circle cx="409.7595261507116" cy="442.30738549550813" r="3.2129999999999996" style="stroke: blue; fill: white;"/><circle cx="402.3522397589535" cy="602.2163250569848" r="3.5069999999999997" style="stroke: blue; fill: white;"/><circle cx="339.46083984778136" cy="292.5044995020155" r="3.6679999999999997" style="stroke: blue; fill: white;"/><circle cx="279.4469430038782" cy="411.68926097942773" r="3.052" style="stroke: blue; fill: white;"/><circle cx="279.4462256065603" cy="411.70211398125645" r="2.3379999999999996" style="stroke: blue; fill: white;"/><circle cx="247.23971086131309" cy="628.4397991570165" r="2.9539999999999997" style="stroke: blue; fill: white;"/><circle cx="198.81817180538332" cy="544.4690696148017" r="3.605" style="stroke: blue; fill: white;"/><circle cx="205.8630648158167" cy="409.85994879659586" r="3.36" style="stroke: blue; fill: white;"/><circle cx="204.29281233265414" cy="414.1876441186081" r="3.227" style="stroke: blue; fill: white;"/></svg>