<?xml version="1.0" encoding="utf-8"?>                 <svg xmlns="http://www.w3.org/2000/svg" xmlns:xlink="http://www.w3.org/1999/xlink" width="1000" height="1000" fill = "black"><rect x ="0" y ="0" width ="1000" height="1000"/><circle cx="761.2850861527954" cy="179.02808567669717" r="4.361" style="stroke: blue; fill: white;"/><circle cx="732.1462983106833" cy="209.9163698459904" r="2.9749999999999996" style="stroke: blue; fill: white;"/><circle cx="818.9636647578575" cy="774.1854942861069" r="4.843999999999999" style="stroke: blue; fill: white;"/><circle cx="818.7797446215408" cy="774.0894417283237" r="3.4229999999999996" style="stroke: blue; fill: white;"/><circle cx="727.244025327469" cy="224.81692206450163" r="4.3469999999999995" style="stroke: blue; fill: white;"/><circle cx="710.1587168401093" cy="263.48986183660594" r="3.8639999999999994" style="stroke: blue; fill: white;"/><circle cx="769.4591753962947" cy="731.27565142741" r="3.7169999999999996" style="stroke: blue; fill: white;"/><circle cx="697.0975004915942" cy="386.29342129952573" r="4.991" style="stroke: blue; fill: white;"/><circle cx="707.3593767876943" cy="675.0475068605698" r="4.039" style="stroke: blue; fill: white;"/><circle cx="674.7988068630605" cy="627.602954307446" r="4.276999999999999" style="stroke: blue; fill: white;"/><circle cx="632.6208748948551" cy="221.91703640883065" r="3.5559999999999996" style="stroke: blue; fill: white;"/><circle cx="546.9012883788394" cy="514.0649938617091" r="5.46" style="stroke: blue; fill: white;"/><circle cx="510.0170743102586" cy="310.0334297885196" r="3.5349999999999997" style="stroke: blue; fill: white;"/><circle cx="505.12412227286484" cy="303.7826605697593" r="3.1919999999999997" style="stroke: blue; fill: white;"/><circle cx="463.4986698185678" cy="395.7801889291281" r="6.125" style="stroke: blue; fill: white;"/><circle cx="433.604491530386" cy="661.5258851419683" r="5.278" style="stroke: blue; fill: white;"/><circle cx="429.9674131144279" cy="602.1098232737603" r="3.8289999999999997" style="stroke: blue; fill: white;"/><circle cx="391.1903845994535" cy="489.4461795634569" r="4.242" style="stroke: blue; fill: white;"/><circle cx="363.167275085514" cy="421.7886097935205" r="4.395999999999999" style="stroke: blue; fill: white;"/><circle cx="295.5234691308923" cy="738.3596190301938" r="4.76" style="stroke: blue; fill: white;"/><circle cx="305.1465120716575" cy="555.1877269286088" r="4.395999999999999" style="stroke: blue; fill: white;"/><circle cx="297.0299954194959" cy="522.0946668309966" r="4.039" style="stroke: blue; fill: white;"/><circle cx="282.2008594588807" cy="626.9426610304831" r="3.899" style="stroke: blue; fill: white;"/><circle cx="249.62025665414876" cy="366.84021611718407" r="4.186" style="stroke: blue; fill: white;"/><circle cx="246.9437448939549" cy="232.61310804435408" r="3.731" style="stroke: blue; fill: white;"/><circle cx="135.88025439144326" cy="747.0298118635945" r="3.6889999999999996" style="stroke: blue; fill: white;"/><circle cx="135.90585361785918" cy="747.0286978791453" r="2.7439999999999998" style="stroke: blue; fill: white;"/><circle cx="219.55403226075543" cy="271.75383288679376" r="4.039" style="stroke: blue; fill: white;"/></svg>